<?xml version="1.0" encoding="UTF-8"?>
<svg version="1.1" xmlns="http://www.w3.org/2000/svg" width="500" height="500">
<path d="M0 0 C165 0 330 0 500 0 C500 165 500 330 500 500 C335 500 170 500 0 500 C0 335 0 170 0 0 Z " fill="#FE904D" transform="translate(0,0)"/>
<path d="M0 0 C165 0 330 0 500 0 C500 80.52 500 161.04 500 244 C475.94738281 243.979375 451.89476562 243.95875 427.11328125 243.9375 C411.91469585 243.94222581 396.71614979 243.94891401 381.51757812 243.96484375 C373.53654022 243.97310485 365.55550207 243.9808664 357.57446289 243.98779297 C356.57413735 243.98868191 355.57381181 243.98957086 354.54317337 243.99048674 C338.38298127 244.00411892 322.22293103 243.98953781 306.06275771 243.96458304 C289.48424733 243.93960845 272.90594607 243.94484324 256.3274495 243.97825909 C246.09333333 243.99793081 235.85978558 243.99389699 225.62570509 243.95976371 C218.61258255 243.93862794 211.59987935 243.94677388 204.58679662 243.97815877 C200.53729129 243.99540967 196.48886565 243.99954614 192.43941498 243.96898079 C188.73329108 243.94129131 185.02915082 243.95029268 181.32313969 243.98874104 C179.34446864 243.99965117 177.36570227 243.97106386 175.38722688 243.94117641 C169.23272334 243.82120077 169.23272334 243.82120077 164.18033636 246.77734375 C162.82168095 248.88413703 162.82168095 248.88413703 161.91980141 251.08984375 C161 253 161 253 158 255 C152.83468497 255.65591302 152.83468497 255.65591302 150 255 C146.34894177 251.07511241 146 249.45636705 146 244 C134.12 244 122.24 244 110 244 C109.67 245.65 109.34 247.3 109 249 C107.45901085 251.10092815 106.53571886 251.85418303 104.01953125 252.5390625 C96.04536419 252.84956104 95.88912122 251.02798107 89 245 C59.63 244.67 30.26 244.34 0 244 C0 163.48 0 82.96 0 0 Z " fill="#0096B1" transform="translate(0,0)"/>
<path d="M0 0 C0.74507812 0.00451172 1.49015625 0.00902344 2.2578125 0.01367188 C4.0885764 0.02540754 5.91929873 0.0433415 7.75 0.0625 C7.75 0.7225 7.75 1.3825 7.75 2.0625 C8.48605469 2.1759375 9.22210938 2.289375 9.98046875 2.40625 C18.45442287 4.41418271 24.5908865 11.45093338 29.75 18.0625 C30.21921875 18.66191406 30.6884375 19.26132812 31.171875 19.87890625 C33.87412631 23.86750322 34.33815561 27.28517124 33.546875 31.90625 C32.07217321 35.89661954 29.49215455 38.15544047 25.75 40.0625 C22.65668144 40.82988095 21.04539461 40.58557851 17.75 40.0625 C16.780625 39.4025 15.81125 38.7425 14.8125 38.0625 C10.71189928 35.38455667 7.52176346 35.10986377 2.75 36.0625 C-2.68418414 39.19760623 -4.60220192 43.18936832 -7.07421875 48.85546875 C-8.25 51.0625 -8.25 51.0625 -11.25 53.0625 C-15.14499061 53.84753687 -18.74355776 53.87343921 -22.2890625 51.96484375 C-26.29971812 48.76485257 -29.2577792 45.18450466 -30.25 40.0625 C-31.231861 28.70886792 -30.20722369 18.82580543 -22.8671875 9.82421875 C-20.4794735 7.22311002 -18.13482114 5.11392836 -15.25 3.0625 C-14.26 3.0625 -13.27 3.0625 -12.25 3.0625 C-12.25 2.4025 -12.25 1.7425 -12.25 1.0625 C-8.15996141 -0.08732602 -4.21822949 -0.04844256 0 0 Z " fill="#040201" transform="translate(129.25,248.9375)"/>
<path d="M0 0 C7.11866669 3.77725171 11.46827901 9.40483704 14 17 C14.55470992 22.26974421 13.73510246 25.47656132 11 30 C8.68751503 32.31248497 8.03894341 32.39162501 4.875 32.5625 C-0.16987105 32.44064321 -2.76804521 30.54445479 -6.26953125 27.04296875 C-11.48339888 20.88754489 -12.4439939 15.76328841 -12.43359375 7.734375 C-11.94073874 4.62628037 -11.18307502 3.23957814 -9 1 C-5.64870516 -0.11709828 -3.51689744 -0.34479387 0 0 Z " fill="#020303" transform="translate(97,220)"/>
<path d="M0 0 C4.50885658 0.52603327 6.90217328 2.03736749 9.75 5.4375 C12.99710944 10.95758606 13.62611117 16.1809235 12.75 22.4375 C11.31715953 26.99589934 9.59932094 31.42418909 5.75 34.4375 C2.6632694 35.18317088 -0.15183428 35.11267144 -3.25 34.4375 C-7.62488292 30.43494754 -9.90732996 26.25460841 -10.62109375 20.38671875 C-10.77140362 13.00385166 -10.16182416 8.10842425 -5.25 2.4375 C-3.25 0.4375 -3.25 0.4375 0 0 Z " fill="#000304" transform="translate(126.25,209.5625)"/>
<path d="M0 0 C5.25703061 1.1230489 8.96474783 3.21005314 12.62109375 7.140625 C14.53777409 11.37329408 15.13118302 14.88247106 14.12109375 19.453125 C11.68359375 22.453125 11.68359375 22.453125 9.12109375 24.453125 C8.79109375 24.783125 8.46109375 25.113125 8.12109375 25.453125 C2.87452978 25.86462021 -0.45533071 25.33806557 -4.87890625 22.453125 C-8.48352315 18.8096443 -10.73677968 15.87439066 -11.25390625 10.703125 C-11.19620675 7.54119246 -10.71739259 5.54428025 -8.87890625 2.953125 C-5.74377507 0.34051568 -4.07789922 -0.33918254 0 0 Z " fill="#070402" transform="translate(82.87890625,252.546875)"/>
<path d="M0 0 C2.85246277 2.19420213 4.69377114 4.20139001 5.30859375 7.8125 C5.71919246 14.78023566 3.23567616 19.54824164 -1 25 C-4.19259794 27.12839863 -6.23953183 27.55941325 -10.05859375 27.42578125 C-12 27 -12 27 -14.5 24.6875 C-16.55129023 19.64474484 -16.89621357 15.36968641 -16 10 C-12.85892894 2.57891989 -8.46743668 -1.43400137 0 0 Z " fill="#020403" transform="translate(162,228)"/>
<path d="M0 0 C2.89683868 2.2015974 4.39297231 3.78594462 6 7 C6.37593152 11.98109259 6.1765161 15.05673864 3 19 C-0.43287022 21.84437818 -3.52575411 22.58221861 -8 22.4296875 C-11.61068185 21.65395507 -13.45265225 19.60947818 -16 17 C-17.60540839 13.78918322 -17.48463309 10.48289645 -17 7 C-12.83029382 -0.64446132 -8.30660639 -1.10275294 0 0 Z " fill="#0B0603" transform="translate(218,253)"/>
<path d="M0 0 C10.65351418 -0.82860666 10.65351418 -0.82860666 14.1328125 1.3125 C16.95289124 4.36417941 17.91973558 6.48274041 18.5625 10.625 C17.78959379 15.26243723 16.45855318 17.71824114 12.9375 20.8125 C10 22 10 22 0 22 C0 14.74 0 7.48 0 0 Z " fill="#130A05" transform="translate(299,253)"/>
<path d="M0 0 C11.44444444 0 11.44444444 0 15 3 C17.69657104 7.04485657 17.5422677 10.25307196 17 15 C15.18524607 19.26467175 14.2842238 19.8578881 10 22 C6.7 22 3.4 22 0 22 C0 14.74 0 7.48 0 0 Z " fill="#050301" transform="translate(180,253)"/>
<path d="M0 0 C1.65 0 3.3 0 5 0 C6.32 3.3 7.64 6.6 9 10 C10.32 6.7 11.64 3.4 13 0 C15 1 15 1 15.8515625 3.06640625 C16.56770833 5.37760417 17.28385417 7.68880208 18 10 C19.32 6.7 20.64 3.4 22 0 C23.65 0 25.3 0 27 0 C24.92957946 7.60837466 22.14169523 14.7728592 19 22 C18.34 22 17.68 22 17 22 C16.01 19.36 15.02 16.72 14 14 C12.68 16.64 11.36 19.28 10 22 C9.34 22 8.68 22 8 22 C6.66399387 18.52185372 5.33164358 15.04231861 4 11.5625 C3.6184375 10.56927734 3.236875 9.57605469 2.84375 8.55273438 C2.4828125 7.60849609 2.121875 6.66425781 1.75 5.69140625 C1.41484375 4.81685791 1.0796875 3.94230957 0.734375 3.04125977 C0 1 0 1 0 0 Z " fill="#000709" transform="translate(217,212)"/>
<path d="M0 0 C3.5 0.25 3.5 0.25 5.5 2.25 C5.125 5.375 5.125 5.375 4.5 8.25 C3.51 8.58 2.52 8.91 1.5 9.25 C2.78062485 10.9574998 4.11767557 12.62373596 5.5 14.25 C6.16 14.25 6.82 14.25 7.5 14.25 C7.83 13.26 8.16 12.27 8.5 11.25 C9.49 11.25 10.48 11.25 11.5 11.25 C11.108125 12.3225 10.71625 13.395 10.3125 14.5 C9.08703117 18.14885991 9.08703117 18.14885991 10.875 20.6875 C11.41125 21.203125 11.9475 21.71875 12.5 22.25 C11.38625 22.064375 10.2725 21.87875 9.125 21.6875 C5.67431139 20.93319343 5.67431139 20.93319343 3.5 22.25 C-3.68858954 22.70641838 -3.68858954 22.70641838 -6.5 21.125 C-7.97901666 18.35184376 -7.88601984 16.33815875 -7.5 13.25 C-6.984375 12.79625 -6.46875 12.3425 -5.9375 11.875 C-4.27344921 10.37533443 -4.27344921 10.37533443 -4.59375 8.36328125 C-4.76390625 7.28626953 -4.76390625 7.28626953 -4.9375 6.1875 C-5.123125 4.888125 -5.30875 3.58875 -5.5 2.25 C-3.5 0.25 -3.5 0.25 0 0 Z " fill="#001014" transform="translate(279.5,211.75)"/>
<path d="M0 0 C11.47792846 -0.37025576 11.47792846 -0.37025576 13.8671875 1.32421875 C15.61198003 3.90530839 15.31573262 5.96896687 15 9 C14.01 10.485 14.01 10.485 13 12 C12.34 12 11.68 12 11 12 C12.65 15.3 14.3 18.6 16 22 C14.35 22 12.7 22 11 22 C7 17.02702703 7 17.02702703 7 14 C6.01 14 5.02 14 4 14 C4 16.64 4 19.28 4 22 C2.68 22 1.36 22 0 22 C0 14.74 0 7.48 0 0 Z " fill="#080502" transform="translate(401,253)"/>
<path d="M0 0 C11.46953938 -0.36998514 11.46953938 -0.36998514 13.859375 1.296875 C15.8037366 4.20009986 15.41409188 6.62810898 15 10 C13.375 12.4375 13.375 12.4375 11 14 C7.75 14.25 7.75 14.25 5 14 C5 16.64 5 19.28 5 22 C3.35 22 1.7 22 0 22 C0 14.74 0 7.48 0 0 Z " fill="#000B0D" transform="translate(304,212)"/>
<path d="M0 0 C0.66 0 1.32 0 2 0 C4.97 7.59 7.94 15.18 11 23 C9.35 23 7.7 23 6 23 C5.67 22.67 5.34 22.34 5 22 C3.65252916 21.76924918 2.29622435 21.58846937 0.9375 21.4375 C-0.361875 21.293125 -1.66125 21.14875 -3 21 C-3 21.66 -3 22.32 -3 23 C-4.65 23 -6.3 23 -8 23 C-7.26905294 17.94514073 -5.31619096 13.40096821 -3.4375 8.6875 C-3.10814453 7.85154297 -2.77878906 7.01558594 -2.43945312 6.15429688 C-1.63001123 4.10136454 -0.81676543 2.05002714 0 0 Z " fill="#1E1109" transform="translate(387,252)"/>
<path d="M0 0 C0.66 0 1.32 0 2 0 C4.97 7.59 7.94 15.18 11 23 C9.35 23 7.7 23 6 23 C5.67 22.67 5.34 22.34 5 22 C3.65252916 21.76924918 2.29622435 21.58846937 0.9375 21.4375 C-0.361875 21.293125 -1.66125 21.14875 -3 21 C-3 21.66 -3 22.32 -3 23 C-4.65 23 -6.3 23 -8 23 C-7.26905294 17.94514073 -5.31619096 13.40096821 -3.4375 8.6875 C-3.10814453 7.85154297 -2.77878906 7.01558594 -2.43945312 6.15429688 C-1.63001123 4.10136454 -0.81676543 2.05002714 0 0 Z " fill="#001115" transform="translate(345,211)"/>
<path d="M0 0 C0.66 0 1.32 0 2 0 C4.97 7.59 7.94 15.18 11 23 C9.35 23 7.7 23 6 23 C5.67 22.67 5.34 22.34 5 22 C3.65252916 21.76924918 2.29622435 21.58846937 0.9375 21.4375 C-0.361875 21.293125 -1.66125 21.14875 -3 21 C-3 21.66 -3 22.32 -3 23 C-4.65 23 -6.3 23 -8 23 C-7.26905294 17.94514073 -5.31619096 13.40096821 -3.4375 8.6875 C-3.10814453 7.85154297 -2.77878906 7.01558594 -2.43945312 6.15429688 C-1.63001123 4.10136454 -0.81676543 2.05002714 0 0 Z " fill="#001115" transform="translate(205,211)"/>
<path d="M0 0 C11 0 11 0 13.75 1.5625 C15.53662547 5.04641968 14.96480532 7.27860804 14 11 C12 13 12 13 10.0546875 13.1953125 C8.03645833 13.13020833 6.01822917 13.06510417 4 13 C4 15.97 4 18.94 4 22 C2.68 22 1.36 22 0 22 C0 14.74 0 7.48 0 0 Z " fill="#000304" transform="translate(180,212)"/>
<path d="M0 0 C2.69185008 1.34592504 2.84753142 2.63010602 3.9453125 5.40234375 C4.29980469 6.29244141 4.65429688 7.18253906 5.01953125 8.09960938 C5.38433594 9.03611328 5.74914062 9.97261719 6.125 10.9375 C6.68380859 12.33645508 6.68380859 12.33645508 7.25390625 13.76367188 C10 20.71943681 10 20.71943681 10 23 C8.35 23 6.7 23 5 23 C5 22.34 5 21.68 5 21 C2.03 21 -0.94 21 -4 21 C-4 21.66 -4 22.32 -4 23 C-5.65 23 -7.3 23 -9 23 C-8.06460476 20.47836818 -7.12674545 17.95769759 -6.1875 15.4375 C-5.79594727 14.38079102 -5.79594727 14.38079102 -5.39648438 13.30273438 C-3.71921959 8.8093213 -1.92278185 4.39410506 0 0 Z " fill="#1B0F08" transform="translate(328,252)"/>
<path d="M0 0 C0 1.65 0 3.3 0 5 C-1.6396875 4.9071875 -1.6396875 4.9071875 -3.3125 4.8125 C-6.81608506 4.73621522 -6.81608506 4.73621522 -8.9375 6 C-10.67278693 9.26642246 -10.17982715 12.34351452 -10 16 C-7.69 16.66 -5.38 17.32 -3 18 C-3 15.69 -3 13.38 -3 11 C-1.68 11 -0.36 11 1 11 C1 14.3 1 17.6 1 21 C-2.23081745 22.61540873 -5.50759098 22.5896275 -9 22 C-12.52787301 20.04342803 -14.70285021 17.89144937 -16 14 C-16.60480171 9.50718726 -16.25066359 6.70884408 -13.625 3.0625 C-9.70013199 -1.16428094 -5.40513101 -0.67297086 0 0 Z " fill="#0A0503" transform="translate(264,253)"/>
<path d="M0 0 C0 1.65 0 3.3 0 5 C-1.6396875 4.9071875 -1.6396875 4.9071875 -3.3125 4.8125 C-6.81608506 4.73621522 -6.81608506 4.73621522 -8.9375 6 C-10.67278693 9.26642246 -10.17982715 12.34351452 -10 16 C-7.69 16.66 -5.38 17.32 -3 18 C-3 15.69 -3 13.38 -3 11 C-1.68 11 -0.36 11 1 11 C1 14.3 1 17.6 1 21 C-2.23081745 22.61540873 -5.50759098 22.5896275 -9 22 C-12.52787301 20.04342803 -14.70285021 17.89144937 -16 14 C-16.60480171 9.50718726 -16.25066359 6.70884408 -13.625 3.0625 C-9.70013199 -1.16428094 -5.40513101 -0.67297086 0 0 Z " fill="#0A0503" transform="translate(243,253)"/>
<path d="M0 0 C1.22589844 0.01353516 1.22589844 0.01353516 2.4765625 0.02734375 C3.41628906 0.04474609 3.41628906 0.04474609 4.375 0.0625 C4.375 1.7125 4.375 3.3625 4.375 5.0625 C3.26125 5.02125 2.1475 4.98 1 4.9375 C-2.66866025 4.65128141 -2.66866025 4.65128141 -4.625 7.0625 C-4.86753813 9.27322977 -4.86753813 9.27322977 -4.75 11.6875 C-4.70875 13.13125 -4.6675 14.575 -4.625 16.0625 C-1.325 16.3925 1.975 16.7225 5.375 17.0625 C5.375 18.7125 5.375 20.3625 5.375 22.0625 C-2.23906844 22.82390684 -2.23906844 22.82390684 -5.5234375 21.01953125 C-8.33725084 18.67926211 -10.41904018 16.78108273 -10.86328125 13.07421875 C-10.9963075 8.90839668 -11.01331668 6.68380669 -8.75 3.0625 C-5.68929905 0.18184028 -4.09501886 -0.05850027 0 0 Z " fill="#120A05" transform="translate(371.625,252.9375)"/>
<path d="M0 0 C0 1.32 0 2.64 0 4 C-1.98 4.33 -3.96 4.66 -6 5 C-4.6636586 9.00902419 -2.50572968 9.80891895 1 12 C1.33 12.33 1.66 12.66 2 13 C1.75 16.4375 1.75 16.4375 1 20 C-3.05358424 22.70238949 -5.18310104 22.22937614 -10 22 C-10.66 21.67 -11.32 21.34 -12 21 C-12 19.35 -12 17.7 -12 16 C-9.36 16.33 -6.72 16.66 -4 17 C-4 16.01 -4 15.02 -4 14 C-4.969375 13.54625 -5.93875 13.0925 -6.9375 12.625 C-10 11 -10 11 -11 9 C-11.44036697 3.82568807 -11.44036697 3.82568807 -10 1.125 C-6.74686316 -0.70488947 -3.68609891 -0.18128355 0 0 Z " fill="#00090B" transform="translate(258,212)"/>
<path d="M0 0 C3.63 0 7.26 0 11 0 C11 1.32 11 2.64 11 4 C8.69 4 6.38 4 4 4 C4 5.65 4 7.3 4 9 C5.98 9 7.96 9 10 9 C10 10.32 10 11.64 10 13 C8.02 13 6.04 13 4 13 C4 14.65 4 16.3 4 18 C6.31 18 8.62 18 11 18 C11 19.32 11 20.64 11 22 C7.37 22 3.74 22 0 22 C0 14.74 0 7.48 0 0 Z " fill="#000000" transform="translate(420,253)"/>
<path d="M0 0 C2.75 -0.375 2.75 -0.375 6 0 C8.375 3 8.375 3 10 6 C10.556875 5.01 11.11375 4.02 11.6875 3 C14 0 14 0 16.75 -0.375 C17.86375 -0.189375 17.86375 -0.189375 19 0 C17.9476336 2.98170479 16.90694047 5.1184394 14.9375 7.625 C12.25516333 12.29745742 12.18886206 16.69297613 12 22 C10.35 22 8.7 22 7 22 C6.99742187 21.23816406 6.99484375 20.47632813 6.9921875 19.69140625 C6.69300042 11.70311121 4.85361053 7.24883802 0 1 C0 0.67 0 0.34 0 0 Z " fill="#130A05" transform="translate(268,253)"/>
<path d="M0 0 C2.25 -0.375 2.25 -0.375 5 0 C7.3125 3 7.3125 3 9 6 C10.50559539 4.03617993 11.89131683 2.21736634 13 0 C14.98 0 16.96 0 19 0 C18.57847656 0.66644531 18.15695312 1.33289063 17.72265625 2.01953125 C13.71531336 8.76129634 12.03034506 14.1558031 12 22 C10.35 22 8.7 22 7 22 C6.99742187 21.32195312 6.99484375 20.64390625 6.9921875 19.9453125 C6.66746824 12.13040235 4.31016368 7.40593134 0 1 C0 0.67 0 0.34 0 0 Z " fill="#000B0D" transform="translate(357,212)"/>
<path d="M0 0 C2.3125 -0.3125 2.3125 -0.3125 5 0 C6.81883009 2.3832946 8 3.95818337 8 7 C8.66 7 9.32 7 10 7 C10.309375 6.21625 10.61875 5.4325 10.9375 4.625 C12 2 12 2 13 0 C14.98 0 16.96 0 19 0 C18.02262231 1.64689635 17.0430468 3.29248854 16.0625 4.9375 C15.51722656 5.85402344 14.97195313 6.77054687 14.41015625 7.71484375 C13 10 13 10 12 11 C11.76636119 12.84891946 11.58696365 14.70488031 11.4375 16.5625 C11.35371094 17.57441406 11.26992188 18.58632813 11.18359375 19.62890625 C11.12300781 20.41136719 11.06242187 21.19382812 11 22 C9.68 22 8.36 22 7 22 C6.99742187 21.31035156 6.99484375 20.62070312 6.9921875 19.91015625 C6.71490397 13.17216651 5.39313528 9.13271484 1.27734375 3.77734375 C0 2 0 2 0 0 Z " fill="#090502" transform="translate(340,253)"/>
<path d="M0 0 C3.0625 0.5 3.0625 0.5 5.4375 2.125 C7.54956506 5.21186432 7.67445145 6.8282913 7.0625 10.5 C5.07927007 13.2912125 3.93263879 14.32597224 0.5625 15 C-2.80763879 14.32597224 -3.95427007 13.2912125 -5.9375 10.5 C-6.42964954 7.12526031 -6.27236373 5.20693454 -4.8125 2.125 C-2.9375 0.5 -2.9375 0.5 0 0 Z " fill="#F38A49" transform="translate(211.9375,256.5)"/>
<path d="M0 0 C1.32 0 2.64 0 4 0 C4 5.94 4 11.88 4 18 C6.31 18 8.62 18 11 18 C11 19.32 11 20.64 11 22 C7.37 22 3.74 22 0 22 C0 14.74 0 7.48 0 0 Z " fill="#000000" transform="translate(323,212)"/>
<path d="M0 0 C5 0 5 0 7.375 1.5625 C9 4 9 4 9 7.5625 C8 11 8 11 6.1875 12.9375 C4 14 4 14 0 14 C0 9.38 0 4.76 0 0 Z " fill="#EA8546" transform="translate(184,257)"/>
<path d="M0 0 C2.97 0.495 2.97 0.495 6 1 C8.31282587 4.46923881 8.42478586 5.92205575 8 10 C6.8125 11.875 6.8125 11.875 5 13 C3.35 13 1.7 13 0 13 C0 8.71 0 4.42 0 0 Z " fill="#F98D4B" transform="translate(304,257)"/>
<path d="M0 0 C2.125 0.375 2.125 0.375 4 1 C4 1.66 4 2.32 4 3 C4.66 3 5.32 3 6 3 C6 2.34 6 1.68 6 1 C7.65 1 9.3 1 11 1 C11 2.32 11 3.64 11 5 C9.68 5.33 8.36 5.66 7 6 C7.99 6.66 8.98 7.32 10 8 C9.113125 7.814375 8.22625 7.62875 7.3125 7.4375 C4.13549782 7.01789594 2.07591077 7.29693468 -1 8 C-2 7 -2 7 -2.1875 4.5625 C-2 2 -2 2 0 0 Z " fill="#9B582E" transform="translate(311,290)"/>
<path d="M0 0 C0.33 1.32 0.66 2.64 1 4 C2.2065625 3.7215625 2.2065625 3.7215625 3.4375 3.4375 C4.7059375 3.2209375 4.7059375 3.2209375 6 3 C7 4 7 4 7.0625 7.5625 C7.041875 8.696875 7.02125 9.83125 7 11 C4.625 11.125 4.625 11.125 2 11 C1.34 10.34 0.68 9.68 0 9 C-0.66 9.66 -1.32 10.32 -2 11 C-1.85957123 9.35369672 -1.71250671 7.70795821 -1.5625 6.0625 C-1.48128906 5.14597656 -1.40007812 4.22945313 -1.31640625 3.28515625 C-1 1 -1 1 0 0 Z " fill="#784424" transform="translate(300,287)"/>
<path d="M0 0 C1.66611905 -0.042721 3.33382885 -0.04063832 5 0 C6 1 6 1 6.1875 4.4375 C6 8 6 8 4 10 C1.375 10.125 1.375 10.125 -1 10 C-1.125 2.25 -1.125 2.25 0 0 Z " fill="#8D502A" transform="translate(211,288)"/>
<path d="M0 0 C1.98 0 3.96 0 6 0 C5.25 7.75 5.25 7.75 3 10 C1.68 10 0.36 10 -1 10 C-1 9.34 -1 8.68 -1 8 C-0.01 8 0.98 8 2 8 C1.01 7.34 0.02 6.68 -1 6 C-0.67 4.02 -0.34 2.04 0 0 Z " fill="#9A582E" transform="translate(227,291)"/>
<path d="M0 0 C3.26296197 0.22503186 4.04203745 1.04787598 6.25 3.5625 C7.11625 4.7690625 7.11625 4.7690625 8 6 C6 8 6 8 2.9375 8.1875 C0 8 0 8 -1 7 C-1.125 4 -1.125 4 -1 1 C-0.67 0.67 -0.34 0.34 0 0 Z " fill="#008CA6" transform="translate(276,224)"/>
<path d="M0 0 C1.65 0.33 3.3 0.66 5 1 C5 2.98 5 4.96 5 7 C3.35 7.33 1.7 7.66 0 8 C-0.33 8.99 -0.66 9.98 -1 11 C-2.60080151 6.99799622 -1.29279692 3.95443764 0 0 Z " fill="#7E4726" transform="translate(273,290)"/>
<path d="M0 0 C1.65 0.33 3.3 0.66 5 1 C5 2.98 5 4.96 5 7 C3.35 7.33 1.7 7.66 0 8 C0 8.99 0 9.98 0 11 C-0.66 11 -1.32 11 -2 11 C-1.85892253 9.54119891 -1.71197585 8.08296449 -1.5625 6.625 C-1.48128906 5.81289063 -1.40007812 5.00078125 -1.31640625 4.1640625 C-1 2 -1 2 0 0 Z " fill="#814926" transform="translate(265,290)"/>
<path d="M0 0 C0.66 0 1.32 0 2 0 C2 1.32 2 2.64 2 4 C3.32 4 4.64 4 6 4 C6 2.68 6 1.36 6 0 C6.66 0 7.32 0 8 0 C7.67 3.3 7.34 6.6 7 10 C6.34 10 5.68 10 5 10 C5 8.68 5 7.36 5 6 C3.68 6 2.36 6 1 6 C1 7.32 1 8.64 1 10 C0.34 10 -0.32 10 -1 10 C-0.67 6.7 -0.34 3.4 0 0 Z " fill="#60361D" transform="translate(397,288)"/>
<path d="M0 0 C1.65 0 3.3 0 5 0 C5.38218767 1.65614657 5.71395102 3.32457024 6 5 C5 6 5 6 2.4375 6.0625 C1.2309375 6.0315625 1.2309375 6.0315625 0 6 C0 7.32 0 8.64 0 10 C-0.66 10 -1.32 10 -2 10 C-1.125 2.25 -1.125 2.25 0 0 Z " fill="#734122" transform="translate(291,288)"/>
<path d="M0 0 C2.0625 0.4375 2.0625 0.4375 4 1 C4.625 3.375 4.625 3.375 5 6 C4.34 6.66 3.68 7.32 3 8 C0.375 7.625 0.375 7.625 -2 7 C-1.125 1.125 -1.125 1.125 0 0 Z " fill="#8B4F2A" transform="translate(188,290)"/>
<path d="M0 0 C1.32 0.66 2.64 1.32 4 2 C3.67 3.65 3.34 5.3 3 7 C1.35 7.33 -0.3 7.66 -2 8 C-2.6875 5.6875 -2.6875 5.6875 -3 3 C-1.5625 1.1875 -1.5625 1.1875 0 0 Z " fill="#894E29" transform="translate(221,290)"/>
<path d="M0 0 C1 1 1 1 1.0625 4.5625 C1.041875 5.696875 1.02125 6.83125 1 8 C0.34 8 -0.32 8 -1 8 C-0.67 6.02 -0.34 4.04 0 2 C-0.99 2 -1.98 2 -3 2 C-3.33 3.98 -3.66 5.96 -4 8 C-4.33 8 -4.66 8 -5 8 C-5 6.02 -5 4.04 -5 2 C-5.99 2.495 -5.99 2.495 -7 3 C-7.65555119 5.52733235 -7.65555119 5.52733235 -8 8 C-8.66 8 -9.32 8 -10 8 C-9.67 5.69 -9.34 3.38 -9 1 C-5.78419562 -0.07193479 -3.36629251 -0.14636054 0 0 Z " fill="#4E2C17" transform="translate(423,290)"/>
<path d="M0 0 C1 1 1 1 1.0625 4.5625 C1.041875 5.696875 1.02125 6.83125 1 8 C0.34 8 -0.32 8 -1 8 C-0.67 6.02 -0.34 4.04 0 2 C-0.99 2 -1.98 2 -3 2 C-3.33 3.98 -3.66 5.96 -4 8 C-4.33 8 -4.66 8 -5 8 C-5 6.02 -5 4.04 -5 2 C-5.99 2.495 -5.99 2.495 -7 3 C-7.65555119 5.52733235 -7.65555119 5.52733235 -8 8 C-8.66 8 -9.32 8 -10 8 C-9.67 5.69 -9.34 3.38 -9 1 C-5.78419562 -0.07193479 -3.36629251 -0.14636054 0 0 Z " fill="#4E2C17" transform="translate(390,290)"/>
<path d="M0 0 C2.125 0.375 2.125 0.375 4 1 C4 2.98 4 4.96 4 7 C2.34385343 7.38218767 0.67542976 7.71395102 -1 8 C-2 7 -2 7 -2.1875 4.5625 C-2 2 -2 2 0 0 Z " fill="#402413" transform="translate(408,290)"/>
<path d="M0 0 C2.125 0.375 2.125 0.375 4 1 C4 2.98 4 4.96 4 7 C2.34385343 7.38218767 0.67542976 7.71395102 -1 8 C-2 7 -2 7 -2.1875 4.5625 C-2 2 -2 2 0 0 Z " fill="#402413" transform="translate(375,290)"/>
<path d="M0 0 C0.66 0 1.32 0 2 0 C2.33 3.3 2.66 6.6 3 10 C2.67 9.34 2.34 8.68 2 8 C-0.31 8.66 -2.62 9.32 -5 10 C-3.66749209 6.4124787 -2.169283 3.1635377 0 0 Z " fill="#61371D" transform="translate(331,288)"/>
<path d="M0 0 C0.99 0.33 1.98 0.66 3 1 C3 3.31 3 5.62 3 8 C1.35 8 -0.3 8 -2 8 C-2 5.66666667 -2 3.33333333 -2 1 C-1.34 0.67 -0.68 0.34 0 0 Z " fill="#734122" transform="translate(259,290)"/>
<path d="M0 0 C0.99 1.485 0.99 1.485 2 3 C2.433125 2.505 2.86625 2.01 3.3125 1.5 C5 0 5 0 8 0 C8.33 0.66 8.66 1.32 9 2 C7.5625 4.625 7.5625 4.625 6 7 C5.34 6.34 4.68 5.68 4 5 C2.02 5.99 2.02 5.99 0 7 C0 4.69 0 2.38 0 0 Z " fill="#502D18" transform="translate(336,291)"/>
<path d="M0 0 C0.66 0 1.32 0 2 0 C1.34 3.3 0.68 6.6 0 10 C-0.33 8.68 -0.66 7.36 -1 6 C-2.94074861 6.27617533 -2.94074861 6.27617533 -5 7 C-5.66 7.99 -6.32 8.98 -7 10 C-6.67 7.03 -6.34 4.06 -6 1 C-5.67 1.99 -5.34 2.98 -5 4 C-3.35 4 -1.7 4 0 4 C0 2.68 0 1.36 0 0 Z " fill="#452714" transform="translate(254,288)"/>
<path d="M0 0 C1.65 0 3.3 0 5 0 C5 1.32 5 2.64 5 4 C3.68 4.33 2.36 4.66 1 5 C1.99 5.66 2.98 6.32 4 7 C2.35 6.67 0.7 6.34 -1 6 C-0.67 4.02 -0.34 2.04 0 0 Z " fill="#5C341B" transform="translate(317,291)"/>
<path d="M0 0 C1.65 0 3.3 0 5 0 C5.33 1.65 5.66 3.3 6 5 C4.02 5 2.04 5 0 5 C0 3.35 0 1.7 0 0 Z " fill="#EA8546" transform="translate(405,257)"/>
<path d="M0 0 C0.185625 0.61875 0.37125 1.2375 0.5625 1.875 C2.71437233 5.05602866 5.37533763 5.19451947 9 6 C9 6.66 9 7.32 9 8 C2.60924751 8.36174071 2.60924751 8.36174071 0 6.8125 C-1 5 -1 5 -0.6875 2.3125 C-0.460625 1.549375 -0.23375 0.78625 0 0 Z " fill="#000304" transform="translate(273,226)"/>
<path d="M0 0 C1.65 0 3.3 0 5 0 C5.33 1.65 5.66 3.3 6 5 C4.02 5 2.04 5 0 5 C0 3.35 0 1.7 0 0 Z " fill="#008BA3" transform="translate(184,216)"/>
<path d="M0 0 C1.65 0 3.3 0 5 0 C5.5625 1.9375 5.5625 1.9375 6 4 C5 5 5 5 2.4375 5.0625 C1.2309375 5.0315625 1.2309375 5.0315625 0 5 C0 3.35 0 1.7 0 0 Z " fill="#008CA5" transform="translate(309,216)"/>
<path d="M0 0 C2.31 0 4.62 0 7 0 C7.33 1.65 7.66 3.3 8 5 C7.01 5.495 7.01 5.495 6 6 C5.67 5.01 5.34 4.02 5 3 C2.69 3.33 0.38 3.66 -2 4 C-1.34 2.68 -0.68 1.36 0 0 Z " fill="#00090B" transform="translate(276,212)"/>
<path d="M0 0 C1.32 0.33 2.64 0.66 4 1 C3.67 3.31 3.34 5.62 3 8 C1.35 8 -0.3 8 -2 8 C-2 6.68 -2 5.36 -2 4 C-1.01 4.495 -1.01 4.495 0 5 C-0.33 5.66 -0.66 6.32 -1 7 C-0.34 6.67 0.32 6.34 1 6 C1.65213292 3.97536745 1.65213292 3.97536745 2 2 C0.68 2.33 -0.64 2.66 -2 3 C-1.34 2.01 -0.68 1.02 0 0 Z " fill="#4D2C17" transform="translate(348,290)"/>
<path d="M0 0 C2 0.66666667 4 1.33333333 6 2 C5.67 3.65 5.34 5.3 5 7 C4.34 7 3.68 7 3 7 C2.67 6.01 2.34 5.02 2 4 C1.67 4.99 1.34 5.98 1 7 C0.34 7 -0.32 7 -1 7 C-0.67 4.69 -0.34 2.38 0 0 Z " fill="#DA7C42" transform="translate(344,290)"/>
<path d="M0 0 C0.99 0.99 1.98 1.98 3 3 C3.66 2.01 4.32 1.02 5 0 C5.66 0.33 6.32 0.66 7 1 C6.525625 1.7425 6.05125 2.485 5.5625 3.25 C4.22130673 5.61050015 3.487688 7.36648477 3 10 C2.34 10 1.68 10 1 10 C0.67 6.7 0.34 3.4 0 0 Z " fill="#4C2B16" transform="translate(179,288)"/>
<path d="M0 0 C1.32 0.66 2.64 1.32 4 2 C4 2.99 4 3.98 4 5 C2.35 5 0.7 5 -1 5 C-1.33 5.66 -1.66 6.32 -2 7 C-2.125 4.625 -2.125 4.625 -2 2 C-1.34 1.34 -0.68 0.68 0 0 Z " fill="#65391E" transform="translate(428,290)"/>
<path d="M0 0 C2.475 0.495 2.475 0.495 5 1 C4.67 2.32 4.34 3.64 4 5 C2.68 5 1.36 5 0 5 C0 3.35 0 1.7 0 0 Z " fill="#0092AC" transform="translate(277,214)"/>
<path d="M0 0 C0.99 1.485 0.99 1.485 2 3 C2.99 2.01 3.98 1.02 5 0 C3.81323934 4.10801767 3.10551666 5.89448334 0 9 C0 6.03 0 3.06 0 0 Z " fill="#412513" transform="translate(354,291)"/>
<path d="M0 0 C0.66 0 1.32 0 2 0 C0.515 5.445 0.515 5.445 -1 11 C-1.33 11 -1.66 11 -2 11 C-2.25 3.375 -2.25 3.375 0 0 Z " fill="#522E18" transform="translate(366,287)"/>
<path d="M0 0 C0.33 0 0.66 0 1 0 C1.125 2.375 1.125 2.375 1 5 C0.34 5.66 -0.32 6.32 -1 7 C-2.32 7 -3.64 7 -5 7 C-5 6.34 -5 5.68 -5 5 C-4.01 5 -3.02 5 -2 5 C-2.66 4.67 -3.32 4.34 -4 4 C-3.67 3.34 -3.34 2.68 -3 2 C-2.34 2 -1.68 2 -1 2 C-0.67 1.34 -0.34 0.68 0 0 Z " fill="#402413" transform="translate(231,294)"/>
<path d="M0 0 C0.625 1.8125 0.625 1.8125 1 4 C0.01 5.485 0.01 5.485 -1 7 C-1.66 7 -2.32 7 -3 7 C-3.33 7.66 -3.66 8.32 -4 9 C-4 8.34 -4 7.68 -4 7 C-4.66 6.67 -5.32 6.34 -6 6 C-5.195625 5.566875 -4.39125 5.13375 -3.5625 4.6875 C-0.72153646 3.19525998 -0.72153646 3.19525998 0 0 Z " fill="#00181D" transform="translate(284,214)"/>
<path d="M0 0 C0.99 0 1.98 0 3 0 C2.67 1.65 2.34 3.3 2 5 C1.01 4.67 0.02 4.34 -1 4 C-0.67 2.68 -0.34 1.36 0 0 Z " fill="#F08848" transform="translate(408,292)"/>
<path d="M0 0 C0.99 0 1.98 0 3 0 C2.67 1.65 2.34 3.3 2 5 C1.01 4.67 0.02 4.34 -1 4 C-0.67 2.68 -0.34 1.36 0 0 Z " fill="#F08848" transform="translate(375,292)"/>
</svg>
